<svg width="70" height="70" viewBox="0 0 70 70" fill="none" xmlns="http://www.w3.org/2000/svg">
<path d="M35 70C54.33 70 70 54.33 70 35C70 15.67 54.33 0 35 0C15.67 0 0 15.67 0 35C0 54.33 15.67 70 35 70Z" fill="white"/>
<path fill-rule="evenodd" clip-rule="evenodd" d="M37.5 30.8285C37.5 32.486 36.1575 33.8285 34.5 33.8285C32.8425 33.8285 31.5 32.486 31.5 30.8285C31.5 29.171 32.8425 27.8285 34.5 27.8285C36.1575 27.8285 37.5 29.171 37.5 30.8285ZM34.5 45.5C34.5 45.5 27 35 27 30.5C27 26.3645 30.3645 23 34.5 23C38.6355 23 42 26.3645 42 30.5C42 35 34.5 45.5 34.5 45.5ZM34.5 20C28.701 20 24 24.701 24 30.5C24 36.299 34.5 50 34.5 50C34.5 50 45 36.299 45 30.5C45 24.701 40.299 20 34.5 20Z" fill="#0C1077"/>
</svg>
